<svg width="32" height="40" viewBox="0 0 32 40" fill="none" xmlns="http://www.w3.org/2000/svg">
<circle cx="16" cy="22" r="16" fill="#D9D9D9"/>
<path opacity="0.4" d="M10.5117 29C10.3784 29 10.2534 28.95 10.1367 28.85C10.0367 28.75 9.98672 28.625 9.98672 28.475C9.98672 28.425 9.99505 28.3667 10.0117 28.3C10.0451 28.2167 10.0951 28.125 10.1617 28.025L14.5117 22.35L10.4367 16.975C10.3701 16.875 10.3201 16.7917 10.2867 16.725C10.2701 16.6583 10.2617 16.5917 10.2617 16.525C10.2617 16.375 10.3117 16.25 10.4117 16.15C10.5117 16.05 10.6367 16 10.7867 16H12.0617C12.2451 16 12.3784 16.05 12.4617 16.15C12.5617 16.2333 12.6451 16.3167 12.7117 16.4L16.0367 20.725L19.3617 16.425C19.4284 16.3417 19.5034 16.25 19.5867 16.15C19.6867 16.05 19.8284 16 20.0117 16H21.2367C21.3867 16 21.5117 16.05 21.6117 16.15C21.7117 16.25 21.7617 16.375 21.7617 16.525C21.7617 16.5917 21.7451 16.6583 21.7117 16.725C21.6951 16.7917 21.6534 16.875 21.5867 16.975L17.4617 22.4L21.8117 28.025C21.8784 28.125 21.9201 28.2083 21.9367 28.275C21.9701 28.3417 21.9867 28.4083 21.9867 28.475C21.9867 28.625 21.9367 28.75 21.8367 28.85C21.7367 28.95 21.6117 29 21.4617 29H20.1367C19.9701 29 19.8367 28.9583 19.7367 28.875C19.6367 28.7917 19.5534 28.7083 19.4867 28.625L15.9617 24.05L12.4367 28.625C12.3701 28.6917 12.2867 28.775 12.1867 28.875C12.1034 28.9583 11.9701 29 11.7867 29H10.5117Z" fill="black"/>
</svg>
